<svg xmlns="http://www.w3.org/2000/svg" viewBox="0 0 240 62"><defs><style>.cls-1{fill:#fff;fill-rule:evenodd;}</style></defs><g id="Layer_1" data-name="Layer 1"><path class="cls-1" d="M37.63,1.91S39.65.3,40.75.4a17.23,17.23,0,0,0,2.42,0s1-.3,2.11,1.61L58.67,27s1.21,1.61-1.41,1.71l-16.81-.1a2.41,2.41,0,0,1-1.91-1.11c-.71-1.1-8.56-16.2-8.56-16.2L11.86,23.76l18,.2s1.41.1,1,1.31S30,27.59,30,27.59a1.88,1.88,0,0,1-1.81,1.21h-27s-1.91-.21-.1-1.41L37.63,1.91"/><path class="cls-1" d="M191.37,1.91s2-1.61,3.12-1.51a17.23,17.23,0,0,0,2.42,0S197.92.1,199,2l13.4,25s1.2,1.61-1.42,1.71l-16.81-.1a2.41,2.41,0,0,1-1.91-1.11c-.71-1.1-8.56-16.2-8.56-16.2L165.6,23.76l18,.2s1.41.1,1,1.31-.91,2.32-.91,2.32a1.88,1.88,0,0,1-1.81,1.21h-27s-1.92-.21-.11-1.41L191.37,1.91"/><path class="cls-1" d="M81.33.4l31.61.1s1.31-.3.71,1.31A6.82,6.82,0,0,1,112.44,4s.5.9-1.81,1H87.77l16.31,9.67s5.5,4.16.71,9.36c-4,4.29-7.05,4.53-9.87,4.63H63.2s-.8-.1-.4-1.21a23.35,23.35,0,0,1,1.31-2.71s-.2-.91,1.81-.91H89L72.06,13.79a4.85,4.85,0,0,1-1.3-5,10.49,10.49,0,0,1,3.42-5.34A16.9,16.9,0,0,1,78.51.91,13,13,0,0,1,81.33.4"/><path class="cls-1" d="M130.16.5h30.2s1.41-.3.71,1.51A5.82,5.82,0,0,1,160,4.13s.1,1.2-2.72,1.11H139.12s-4.23-.91-6.34,3.92l-4.44,9.77s-1.81,4.83,1.51,4.93,8.56-.1,8.56-.1L144,11.28s.2-1.31,2.21-1.21S157,10,157,10s1.61-.2.6,2.21l-6.84,15.3s.3,1.11-2.32,1.21h-30.4s-6-1-7.15-5.43c-1.37-5.12-.41-8.17,1.51-11.08s3.72-5.43,6.44-7.25a21.92,21.92,0,0,1,6.25-3.22c2.21-.7,3.62-1,3.62-1l1.41-.2"/><path class="cls-1" d="M6.62,39.06l82.76-.8,70.88-1a16.21,16.21,0,0,0,5,3.33c3.52,1.51,10.36,2.11,10.36,2.11l.71,1.21v.5l-17.22-.8-35.54-1.41-117-2.12v-1"/><path class="cls-1" d="M175.86,43.28s1.3,1.41-.72,1.7-6.35.77-9.17,2-2.93.6-4.24,1.79a7.57,7.57,0,0,0-1.62,1.81L6.59,47.48l-.1-.81L69.12,46c.23.77,106.93-2.11,106.74-2.73"/><path class="cls-1" d="M162.88,36.14s7.25-1.71,8.76-2.21a42.14,42.14,0,0,0,5.44-3l3.22-.1-.71,2.32s4.12,4.81,5.54,6.24c1.71,1.71,2.11,1.61,4.23,2s4.73.6,4.73.6l.3-.6,9.67-.1a2.79,2.79,0,0,1,.5,1c.1.5,0,.6,0,.6l1.11-.2,3.22-4.13-1.81-4.23.7-.2,3.33,4.33,1.51-.1,1.1,5.13,3.93.11-.3-1.21,1.31,1.1,9.76.81a3.33,3.33,0,0,1,2.92.6L240,50.84a7.07,7.07,0,0,1-3.22,1.31c-1.81.2-7.55.1-11.68-.1s-9.16-.8-9.16-.8l-.5,2-.81-1.51L212,52s-9.46,3.12-18.62,5.34l-19,4.53-3.73-.61-3.72-5.13H168l4.63,4.33s19.14-6.34,21.05-7.15a8.18,8.18,0,0,0,2.92-2c.65,0-.86-1.21-4.43-2.52C188.82,47.5,178,44.4,178,44.4l-.2-.6.2-.41-3.83-8.45s-1.2.3-3.42.7-4.63.71-4.63.71c-.49,0-3.34-.21-3.22-.21"/></g><g id="Layer_3" data-name="Layer 3"><path class="cls-1" d="M37.63,1.91S39.65.3,40.75.4a17.23,17.23,0,0,0,2.42,0s1-.3,2.11,1.61L58.67,27s1.21,1.61-1.41,1.71l-16.81-.1a2.41,2.41,0,0,1-1.91-1.11c-.71-1.1-8.56-16.2-8.56-16.2L11.86,23.76l18,.2s1.41.1,1,1.31S30,27.59,30,27.59a1.88,1.88,0,0,1-1.81,1.21h-27s-1.91-.21-.1-1.41L37.63,1.91"/><path class="cls-1" d="M81.33.4l31.61.1s1.31-.3.71,1.31A6.82,6.82,0,0,1,112.44,4s.5.9-1.81,1H87.77l16.31,9.67s5.5,4.16.71,9.36c-4,4.29-7.05,4.53-9.87,4.63H63.2s-.8-.1-.4-1.21a23.35,23.35,0,0,1,1.31-2.71s-.2-.91,1.81-.91H89L72.06,13.79a4.85,4.85,0,0,1-1.3-5,10.49,10.49,0,0,1,3.42-5.34A16.9,16.9,0,0,1,78.51.91,13,13,0,0,1,81.33.4"/><path class="cls-1" d="M130.16.5h30.2s1.41-.3.71,1.51A5.82,5.82,0,0,1,160,4.13s.1,1.2-2.72,1.11H139.12s-4.23-.91-6.34,3.92l-4.44,9.77s-1.81,4.83,1.51,4.93,8.56-.1,8.56-.1L144,11.28s.2-1.31,2.21-1.21S157,10,157,10s1.61-.2.6,2.21l-6.84,15.3s.3,1.11-2.32,1.21h-30.4s-6-1-7.15-5.43c-1.37-5.12-.41-8.17,1.51-11.08s3.72-5.43,6.44-7.25a21.92,21.92,0,0,1,6.25-3.22c2.21-.7,3.62-1,3.62-1l1.41-.2"/><path class="cls-1" d="M162.88,36.14s7.25-1.71,8.76-2.21a42.14,42.14,0,0,0,5.44-3l3.22-.1-.71,2.32s4.12,4.81,5.54,6.24c1.71,1.71,2.11,1.61,4.23,2s4.73.6,4.73.6l.3-.6,9.67-.1a2.79,2.79,0,0,1,.5,1c.1.5,0,.6,0,.6l1.11-.2,3.22-4.13-1.81-4.23.7-.2,3.33,4.33,1.51-.1,1.1,5.13,3.93.11-.3-1.21,1.31,1.1,9.76.81a3.33,3.33,0,0,1,2.92.6L240,50.84a7.07,7.07,0,0,1-3.22,1.31c-1.81.2-7.55.1-11.68-.1s-9.16-.8-9.16-.8l-.5,2-.81-1.51L212,52s-9.46,3.12-18.62,5.34l-19,4.53-3.73-.61-3.72-5.13H168l4.63,4.33s19.14-6.34,21.05-7.15a8.18,8.18,0,0,0,2.92-2c.65,0-.86-1.21-4.43-2.52C188.82,47.5,178,44.4,178,44.4l-.2-.6.2-.41-3.83-8.45s-1.2.3-3.42.7-4.63.71-4.63.71c-.49,0-3.34-.21-3.22-.21"/></g></svg>